<svg data-name="Calque 1" xmlns="http://www.w3.org/2000/svg" viewBox="0 0 401.97 113.39" fill="#ffffff"><circle cx="388.81" cy="100.22" r="13.16" class="svg-logo-secondary"></circle><path d="M317.74,33.92H294.59V61.67h-8.16V83.19h8.16V113.9c0,20.79,10.6,31.33,31.49,31.33h16.15V123.71H327.72c-6.81,0-10-3.11-10-9.81V83.19h24.49V61.67H317.74Z" transform="translate(-32.83 -33.5)" class="svg-logo-secondary"></path><rect x="222.4" y="0.43" width="23.15" height="111.31" class="svg-logo-secondary"></rect><path d="M191.54,36c-24,7.43-36.09,30.26-28.66,54.29,7.55,24.42,29.87,36.21,54.29,28.66,19.33-6,31.7-21,30.87-37.43l-24.73,7.64c-1.68,4.74-5.59,8-12.25,10-8.88,2.75-16.88.06-22.12-7.38l28-8.66,30.62-9.47-.09-.79a46.51,46.51,0,0,0-1.67-8.21C238.4,40.57,215.57,28.52,191.54,36Zm-8.95,38c.25-9.14,5.57-16.25,14.77-19.09s17.61,0,23,7.42Z" transform="translate(-32.83 -33.5)" class="svg-logo-secondary"></path><path d="M119.18,60c-9.3,0-17.89,2.9-24.3,8.17A32.71,32.71,0,0,0,72.65,60,27.53,27.53,0,0,0,56,65.53V61.67H32.83v83.56H56V94.47c0-7.72,5.38-12.91,13.4-12.91s13.24,5.19,13.24,12.91v50.76h23.15V94.47c0-7.72,5.39-12.91,13.41-12.91s13.24,5.19,13.24,12.91v50.76h23.14V94.47C155.56,74.52,140.26,60,119.18,60Z" transform="translate(-32.83 -33.5)" class="svg-logo-secondary"></path><path fill="#14f032" d="M399.21,99v46.25H376.69V99L342.13,33.5h25.68l20.05,40.06L406.42,33.5H432.1Z" transform="translate(-32.83 -33.5)" class="svg-logo-primary"></path></svg>